0
SECTION
2
HEADER
9
$ANGDIR
70
1
9
$AUNITS
70
0
9
$PROJECTNAME
1
Bias_Lighting_Controller_Schematic
9
$TDCREATE
40
2458197.44273679
9
$INSUNITS
70
4
0
ENDSEC
0
SECTION
2
ENTITIES
0
POLYLINE
66
1
8
outline
10
0.0
20
0.0
30
0.0
70
1
0
VERTEX
8
0
10
0
20
1.524
30
0
0
VERTEX
8
0
10
0.0058000000000000005
20
1.391175
30
0
0
VERTEX
8
0
10
0.023153125
20
1.259359375
30
0
0
VERTEX
8
0
10
0.051928125000000006
20
1.1295593750000001
30
0
0
VERTEX
8
0
10
0.091909375
20
1.0027625
30
0
0
VERTEX
8
0
10
0.1427875
20
0.87993125
30
0
0
VERTEX
8
0
10
0.20417812500000002
20
0.762
30
0
0
VERTEX
8
0
10
0.27561250000000004
20
0.64986875
30
0
0
VERTEX
8
0
10
0.35654687500000004
20
0.544390625
30
0
0
VERTEX
8
0
10
0.44636875000000004
20
0.44636875000000004
30
0
0
VERTEX
8
0
10
0.544390625
20
0.35654687500000004
30
0
0
VERTEX
8
0
10
0.64986875
20
0.27561250000000004
30
0
0
VERTEX
8
0
10
0.762
20
0.20417812500000002
30
0
0
VERTEX
8
0
10
0.87993125
20
0.1427875
30
0
0
VERTEX
8
0
10
1.0027625
20
0.091909375
30
0
0
VERTEX
8
0
10
1.1295593750000001
20
0.051928125000000006
30
0
0
VERTEX
8
0
10
1.259359375
20
0.023153125
30
0
0
VERTEX
8
0
10
1.391175
20
0.0058000000000000005
30
0
0
VERTEX
8
0
10
1.524
20
0
30
0
0
VERTEX
8
0
10
27.94
20
0
30
0
0
VERTEX
8
0
10
28.066200000000002
20
0.005509375
30
0
0
VERTEX
8
0
10
28.19144375
20
0.021996875000000003
30
0
0
VERTEX
8
0
10
28.314768750000002
20
0.049340625
30
0
0
VERTEX
8
0
10
28.43524375
20
0.087325
30
0
0
VERTEX
8
0
10
28.55195
20
0.135665625
30
0
0
VERTEX
8
0
10
28.664
20
0.19399375000000002
30
0
0
VERTEX
8
0
10
28.7705375
20
0.26186875000000004
30
0
0
VERTEX
8
0
10
28.870756250000003
20
0.33876875
30
0
0
VERTEX
8
0
10
28.963890625
20
0.424109375
30
0
0
VERTEX
8
0
10
29.049231250000002
20
0.51724375
30
0
0
VERTEX
8
0
10
29.12613125
20
0.6174625
30
0
0
VERTEX
8
0
10
29.19400625
20
0.7240000000000001
30
0
0
VERTEX
8
0
10
29.252334375
20
0.8360500000000001
30
0
0
VERTEX
8
0
10
29.300675000000002
20
0.9527562500000001
30
0
0
VERTEX
8
0
10
29.338659375000002
20
1.07323125
30
0
0
VERTEX
8
0
10
29.366003125000002
20
1.19655625
30
0
0
VERTEX
8
0
10
29.382490625000003
20
1.3218
30
0
0
VERTEX
8
0
10
29.388
20
1.4480000000000002
30
0
0
VERTEX
8
0
10
29.388
20
22.606
30
0
0
VERTEX
8
0
10
29.382237500000002
20
22.737953125
30
0
0
VERTEX
8
0
10
29.365000000000002
20
22.868903125000003
30
0
0
VERTEX
8
0
10
29.3364125
20
22.997853125000002
30
0
0
VERTEX
8
0
10
29.296693750000003
20
23.12381875
30
0
0
VERTEX
8
0
10
29.24615
20
23.245843750000002
30
0
0
VERTEX
8
0
10
29.1851625
20
23.363
30
0
0
VERTEX
8
0
10
29.114196875
20
23.47439375
30
0
0
VERTEX
8
0
10
29.033790625
20
23.57918125
30
0
0
VERTEX
8
0
10
28.944559375
20
23.676559375
30
0
0
VERTEX
8
0
10
28.847181250000002
20
23.765790625
30
0
0
VERTEX
8
0
10
28.74239375
20
23.846196875
30
0
0
VERTEX
8
0
10
28.631
20
23.9171625
30
0
0
VERTEX
8
0
10
28.513843750000003
20
23.97815
30
0
0
VERTEX
8
0
10
28.391818750000002
20
24.028693750000002
30
0
0
VERTEX
8
0
10
28.265853125
20
24.0684125
30
0
0
VERTEX
8
0
10
28.136903125
20
24.097
30
0
0
VERTEX
8
0
10
28.005953125
20
24.1142375
30
0
0
VERTEX
8
0
10
27.874000000000002
20
24.12
30
0
0
VERTEX
8
0
10
1.524
20
24.12
30
0
0
VERTEX
8
0
10
1.391175
20
24.1142
30
0
0
VERTEX
8
0
10
1.259359375
20
24.096846875
30
0
0
VERTEX
8
0
10
1.1295593750000001
20
24.068071875
30
0
0
VERTEX
8
0
10
1.0027625
20
24.028090625
30
0
0
VERTEX
8
0
10
0.87993125
20
23.9772125
30
0
0
VERTEX
8
0
10
0.762
20
23.915821875000002
30
0
0
VERTEX
8
0
10
0.64986875
20
23.8443875
30
0
0
VERTEX
8
0
10
0.544390625
20
23.763453125
30
0
0
VERTEX
8
0
10
0.44636875000000004
20
23.67363125
30
0
0
VERTEX
8
0
10
0.35654687500000004
20
23.575609375000003
30
0
0
VERTEX
8
0
10
0.27561250000000004
20
23.47013125
30
0
0
VERTEX
8
0
10
0.20417812500000002
20
23.358
30
0
0
VERTEX
8
0
10
0.1427875
20
23.240068750000002
30
0
0
VERTEX
8
0
10
0.091909375
20
23.1172375
30
0
0
VERTEX
8
0
10
0.051928125000000006
20
22.990440625
30
0
0
VERTEX
8
0
10
0.023153125
20
22.860640625000002
30
0
0
VERTEX
8
0
10
0.0058000000000000005
20
22.728825
30
0
0
VERTEX
8
0
10
0
20
22.596
30
0
0
VERTEX
8
0
10
0
20
1.524
30
0
0
SEQEND
0
POLYLINE
66
1
8
holes
10
0.0
20
0.0
30
0.0
70
1
0
VERTEX
8
0
10
6.66
20
5.642
30
0
0
VERTEX
8
0
10
7.66
20
5.642
30
0
0
VERTEX
8
0
10
7.66
20
8.442
30
0
0
VERTEX
8
0
10
6.66
20
8.442
30
0
0
VERTEX
8
0
10
6.66
20
5.642
30
0
0
SEQEND
0
POLYLINE
66
1
8
holes
10
0.0
20
0.0
30
0.0
70
1
0
VERTEX
8
0
10
8.76
20
1.742
30
0
0
VERTEX
8
0
10
11.56
20
1.742
30
0
0
VERTEX
8
0
10
11.56
20
2.742
30
0
0
VERTEX
8
0
10
8.76
20
2.742
30
0
0
VERTEX
8
0
10
8.76
20
1.742
30
0
0
SEQEND
0
POLYLINE
66
1
8
holes
10
0.0
20
0.0
30
0.0
70
1
0
VERTEX
8
0
10
12.76
20
5.392
30
0
0
VERTEX
8
0
10
13.76
20
5.392
30
0
0
VERTEX
8
0
10
13.76
20
8.692
30
0
0
VERTEX
8
0
10
12.76
20
8.692
30
0
0
VERTEX
8
0
10
12.76
20
5.392
30
0
0
SEQEND
0
POLYLINE
66
1
8
holes
10
0.0
20
0.0
30
0.0
70
1
0
VERTEX
8
0
10
6.9
20
14.906506250000001
30
0
0
VERTEX
8
0
10
6.8923000000000005
20
14.848021875
30
0
0
VERTEX
8
0
10
6.877034375
20
14.791040625
30
0
0
VERTEX
8
0
10
6.854459375
20
14.736543750000001
30
0
0
VERTEX
8
0
10
6.824965625
20
14.685456250000001
30
0
0
VERTEX
8
0
10
6.789053125000001
20
14.63865625
30
0
0
VERTEX
8
0
10
6.747343750000001
20
14.596946875
30
0
0
VERTEX
8
0
10
6.7005437500000005
20
14.561034375
30
0
0
VERTEX
8
0
10
6.64945625
20
14.531540625
30
0
0
VERTEX
8
0
10
6.594959375
20
14.508965625
30
0
0
VERTEX
8
0
10
6.537978125
20
14.4937
30
0
0
VERTEX
8
0
10
6.4794937500000005
20
14.486
30
0
0
VERTEX
8
0
10
6.420506250000001
20
14.486
30
0
0
VERTEX
8
0
10
6.362021875
20
14.4937
30
0
0
VERTEX
8
0
10
6.305040625
20
14.508965625
30
0
0
VERTEX
8
0
10
6.25054375
20
14.531540625
30
0
0
VERTEX
8
0
10
6.19945625
20
14.561034375
30
0
0
VERTEX
8
0
10
6.152656250000001
20
14.596946875
30
0
0
VERTEX
8
0
10
6.110946875000001
20
14.63865625
30
0
0
VERTEX
8
0
10
6.075034375
20
14.685456250000001
30
0
0
VERTEX
8
0
10
6.045540625
20
14.736543750000001
30
0
0
VERTEX
8
0
10
6.022965625
20
14.791040625
30
0
0
VERTEX
8
0
10
6.007700000000001
20
14.848021875
30
0
0
VERTEX
8
0
10
6
20
14.906506250000001
30
0
0
VERTEX
8
0
10
6
20
14.96549375
30
0
0
VERTEX
8
0
10
6.007700000000001
20
15.023978125000001
30
0
0
VERTEX
8
0
10
6.022965625
20
15.080959375
30
0
0
VERTEX
8
0
10
6.045540625
20
15.13545625
30
0
0
VERTEX
8
0
10
6.075034375
20
15.18654375
30
0
0
VERTEX
8
0
10
6.110946875000001
20
15.233343750000001
30
0
0
VERTEX
8
0
10
6.152656250000001
20
15.275053125000001
30
0
0
VERTEX
8
0
10
6.19945625
20
15.310965625000001
30
0
0
VERTEX
8
0
10
6.25054375
20
15.340459375
30
0
0
VERTEX
8
0
10
6.305040625
20
15.363034375000002
30
0
0
VERTEX
8
0
10
6.362021875
20
15.378300000000001
30
0
0
VERTEX
8
0
10
6.420506250000001
20
15.386000000000001
30
0
0
VERTEX
8
0
10
6.4794937500000005
20
15.386000000000001
30
0
0
VERTEX
8
0
10
6.537978125
20
15.378300000000001
30
0
0
VERTEX
8
0
10
6.594959375
20
15.363034375000002
30
0
0
VERTEX
8
0
10
6.64945625
20
15.340459375
30
0
0
VERTEX
8
0
10
6.7005437500000005
20
15.310965625000001
30
0
0
VERTEX
8
0
10
6.747343750000001
20
15.275053125000001
30
0
0
VERTEX
8
0
10
6.789053125000001
20
15.233343750000001
30
0
0
VERTEX
8
0
10
6.824965625
20
15.18654375
30
0
0
VERTEX
8
0
10
6.854459375
20
15.13545625
30
0
0
VERTEX
8
0
10
6.877034375
20
15.080959375
30
0
0
VERTEX
8
0
10
6.8923000000000005
20
15.023978125000001
30
0
0
VERTEX
8
0
10
6.9
20
14.96549375
30
0
0
VERTEX
8
0
10
6.9
20
14.906506250000001
30
0
0
SEQEND
0
POLYLINE
66
1
8
holes
10
0.0
20
0.0
30
0.0
70
1
0
VERTEX
8
0
10
6.9
20
18.40650625
30
0
0
VERTEX
8
0
10
6.8923000000000005
20
18.348021875
30
0
0
VERTEX
8
0
10
6.877034375
20
18.291040625
30
0
0
VERTEX
8
0
10
6.854459375
20
18.23654375
30
0
0
VERTEX
8
0
10
6.824965625
20
18.18545625
30
0
0
VERTEX
8
0
10
6.789053125000001
20
18.13865625
30
0
0
VERTEX
8
0
10
6.747343750000001
20
18.096946875
30
0
0
VERTEX
8
0
10
6.7005437500000005
20
18.061034375000002
30
0
0
VERTEX
8
0
10
6.64945625
20
18.031540625
30
0
0
VERTEX
8
0
10
6.594959375
20
18.008965625000002
30
0
0
VERTEX
8
0
10
6.537978125
20
17.9937
30
0
0
VERTEX
8
0
10
6.4794937500000005
20
17.986
30
0
0
VERTEX
8
0
10
6.420506250000001
20
17.986
30
0
0
VERTEX
8
0
10
6.362021875
20
17.9937
30
0
0
VERTEX
8
0
10
6.305040625
20
18.008965625000002
30
0
0
VERTEX
8
0
10
6.25054375
20
18.031540625
30
0
0
VERTEX
8
0
10
6.19945625
20
18.061034375000002
30
0
0
VERTEX
8
0
10
6.152656250000001
20
18.096946875
30
0
0
VERTEX
8
0
10
6.110946875000001
20
18.13865625
30
0
0
VERTEX
8
0
10
6.075034375
20
18.18545625
30
0
0
VERTEX
8
0
10
6.045540625
20
18.23654375
30
0
0
VERTEX
8
0
10
6.022965625
20
18.291040625
30
0
0
VERTEX
8
0
10
6.007700000000001
20
18.348021875
30
0
0
VERTEX
8
0
10
6
20
18.40650625
30
0
0
VERTEX
8
0
10
6
20
18.46549375
30
0
0
VERTEX
8
0
10
6.007700000000001
20
18.523978125
30
0
0
VERTEX
8
0
10
6.022965625
20
18.580959375000003
30
0
0
VERTEX
8
0
10
6.045540625
20
18.63545625
30
0
0
VERTEX
8
0
10
6.075034375
20
18.686543750000002
30
0
0
VERTEX
8
0
10
6.110946875000001
20
18.73334375
30
0
0
VERTEX
8
0
10
6.152656250000001
20
18.775053125
30
0
0
VERTEX
8
0
10
6.19945625
20
18.810965625
30
0
0
VERTEX
8
0
10
6.25054375
20
18.840459375000002
30
0
0
VERTEX
8
0
10
6.305040625
20
18.863034375
30
0
0
VERTEX
8
0
10
6.362021875
20
18.8783
30
0
0
VERTEX
8
0
10
6.420506250000001
20
18.886
30
0
0
VERTEX
8
0
10
6.4794937500000005
20
18.886
30
0
0
VERTEX
8
0
10
6.537978125
20
18.8783
30
0
0
VERTEX
8
0
10
6.594959375
20
18.863034375
30
0
0
VERTEX
8
0
10
6.64945625
20
18.840459375000002
30
0
0
VERTEX
8
0
10
6.7005437500000005
20
18.810965625
30
0
0
VERTEX
8
0
10
6.747343750000001
20
18.775053125
30
0
0
VERTEX
8
0
10
6.789053125000001
20
18.73334375
30
0
0
VERTEX
8
0
10
6.824965625
20
18.686543750000002
30
0
0
VERTEX
8
0
10
6.854459375
20
18.63545625
30
0
0
VERTEX
8
0
10
6.877034375
20
18.580959375000003
30
0
0
VERTEX
8
0
10
6.8923000000000005
20
18.523978125
30
0
0
VERTEX
8
0
10
6.9
20
18.46549375
30
0
0
VERTEX
8
0
10
6.9
20
18.40650625
30
0
0
SEQEND
0
POLYLINE
66
1
8
1_copper
10
0.0
20
0.0
30
0.0
70
1
0
VERTEX
8
0
10
9.55
20
22.136000000000003
30
0
0
VERTEX
8
0
10
7.3500000000000005
20
22.136000000000003
30
0
0
VERTEX
8
0
10
7.3500000000000005
20
19.636
30
0
0
VERTEX
8
0
10
9.55
20
19.636
30
0
0
SEQEND
0
POLYLINE
66
1
8
1_copper
10
0.0
20
0.0
30
0.0
70
1
0
VERTEX
8
0
10
4.25
20
22.136000000000003
30
0
0
VERTEX
8
0
10
2.0500000000000003
20
22.136000000000003
30
0
0
VERTEX
8
0
10
2.0500000000000003
20
19.636
30
0
0
VERTEX
8
0
10
4.25
20
19.636
30
0
0
SEQEND
0
POLYLINE
66
1
8
1_copper
10
0.0
20
0.0
30
0.0
70
1
0
VERTEX
8
0
10
9.700000000000001
20
17.736
30
0
0
VERTEX
8
0
10
7.7
20
17.736
30
0
0
VERTEX
8
0
10
7.7
20
17.236
30
0
0
VERTEX
8
0
10
9.700000000000001
20
17.236
30
0
0
SEQEND
0
POLYLINE
66
1
8
1_copper
10
0.0
20
0.0
30
0.0
70
1
0
VERTEX
8
0
10
9.700000000000001
20
16.936
30
0
0
VERTEX
8
0
10
7.7
20
16.936
30
0
0
VERTEX
8
0
10
7.7
20
16.436
30
0
0
VERTEX
8
0
10
9.700000000000001
20
16.436
30
0
0
SEQEND
0
POLYLINE
66
1
8
1_copper
10
0.0
20
0.0
30
0.0
70
1
0
VERTEX
8
0
10
9.700000000000001
20
16.136
30
0
0
VERTEX
8
0
10
7.7
20
16.136
30
0
0
VERTEX
8
0
10
7.7
20
15.636000000000001
30
0
0
VERTEX
8
0
10
9.700000000000001
20
15.636000000000001
30
0
0
SEQEND
0
POLYLINE
66
1
8
1_copper
10
0.0
20
0.0
30
0.0
70
1
0
VERTEX
8
0
10
9.55
20
13.736
30
0
0
VERTEX
8
0
10
7.3500000000000005
20
13.736
30
0
0
VERTEX
8
0
10
7.3500000000000005
20
11.236
30
0
0
VERTEX
8
0
10
9.55
20
11.236
30
0
0
SEQEND
0
POLYLINE
66
1
8
1_copper
10
0.0
20
0.0
30
0.0
70
1
0
VERTEX
8
0
10
4.25
20
13.736
30
0
0
VERTEX
8
0
10
2.0500000000000003
20
13.736
30
0
0
VERTEX
8
0
10
2.0500000000000003
20
11.236
30
0
0
VERTEX
8
0
10
4.25
20
11.236
30
0
0
SEQEND
0
POLYLINE
66
1
8
16_copper
10
0.0
20
0.0
30
0.0
70
1
0
VERTEX
8
0
10
16.786
20
22.487000000000002
30
0
0
VERTEX
8
0
10
13.186
20
22.487000000000002
30
0
0
VERTEX
8
0
10
13.186
20
20.287000000000003
30
0
0
VERTEX
8
0
10
16.786
20
20.287000000000003
30
0
0
SEQEND
0
POLYLINE
66
1
8
16_copper
10
0.0
20
0.0
30
0.0
70
1
0
VERTEX
8
0
10
24.5618
20
22.0091
30
0
0
VERTEX
8
0
10
23.9522
20
22.0091
30
0
0
VERTEX
8
0
10
23.9522
20
19.799300000000002
30
0
0
VERTEX
8
0
10
24.5618
20
19.799300000000002
30
0
0
SEQEND
0
POLYLINE
66
1
8
16_copper
10
0.0
20
0.0
30
0.0
70
1
0
VERTEX
8
0
10
25.8318
20
22.0091
30
0
0
VERTEX
8
0
10
25.2222
20
22.0091
30
0
0
VERTEX
8
0
10
25.2222
20
19.799300000000002
30
0
0
VERTEX
8
0
10
25.8318
20
19.799300000000002
30
0
0
SEQEND
0
POLYLINE
66
1
8
16_copper
10
0.0
20
0.0
30
0.0
70
1
0
VERTEX
8
0
10
25.8318
20
15.2781
30
0
0
VERTEX
8
0
10
25.2222
20
15.2781
30
0
0
VERTEX
8
0
10
25.2222
20
13.0683
30
0
0
VERTEX
8
0
10
25.8318
20
13.0683
30
0
0
SEQEND
0
POLYLINE
66
1
8
1_copper
10
0.0
20
0.0
30
0.0
70
1
0
VERTEX
8
0
10
26.158328125
20
3.9774656250000002
30
0
42
0.9163316085759912
0
VERTEX
8
0
10
26.080440625
20
5.76135
30
0
0
VERTEX
8
0
10
24.5089125
20
5.76135
30
0
0
VERTEX
8
0
10
22.9362
20
7.3340625
30
0
0
VERTEX
8
0
10
22.9362
20
17.816000000000003
30
0
0
VERTEX
8
0
10
23.86
20
17.816000000000003
30
0
0
VERTEX
8
0
10
23.86
20
19.316000000000003
30
0
0
VERTEX
8
0
10
21.86
20
19.316000000000003
30
0
0
VERTEX
8
0
10
21.86
20
17.816000000000003
30
0
0
VERTEX
8
0
10
22.7838
20
17.816000000000003
30
0
0
VERTEX
8
0
10
22.7838
20
7.3025
30
0
42
0.19891236737965798
0
VERTEX
8
0
10
22.80611875
20
7.24861875
30
0
0
VERTEX
8
0
10
24.2933875
20
5.76135
30
0
42
0.959240182223332
0
VERTEX
8
0
10
24.133671875
20
3.9774656250000002
30
0
0
VERTEX
8
0
10
24.211559375
20
3.97065
30
0
0
VERTEX
8
0
10
26.080440625
20
3.97065
30
0
0
SEQEND
0
POLYLINE
66
1
8
1_copper
10
0.0
20
0.0
30
0.0
70
1
0
VERTEX
8
0
10
13.39065
20
5.049609375
30
0
42
0.36396999178744105
0
VERTEX
8
0
10
14.260000000000002
20
5.9983375
30
0
0
VERTEX
8
0
10
14.260000000000002
20
8.0856625
30
0
42
0.9572902530839056
0
VERTEX
8
0
10
12.26
20
8.0856625
30
0
0
VERTEX
8
0
10
12.26
20
5.9983375
30
0
0
VERTEX
8
0
10
12.267609375000001
20
5.9113500000000005
30
0
0
VERTEX
8
0
10
12.282775
20
5.825353125
30
0
0
VERTEX
8
0
10
12.305375
20
5.74100625
30
0
0
VERTEX
8
0
10
12.335240625
20
5.658953125
30
0
0
VERTEX
8
0
10
12.372143750000001
20
5.5798125
30
0
0
VERTEX
8
0
10
12.415806250000001
20
5.5041875000000005
30
0
0
VERTEX
8
0
10
12.465890625
20
5.432659375
30
0
0
VERTEX
8
0
10
12.52201875
20
5.365765625
30
0
0
VERTEX
8
0
10
12.583765625
20
5.30401875
30
0
0
VERTEX
8
0
10
12.650659375
20
5.247890625
30
0
0
VERTEX
8
0
10
12.7221875
20
5.19780625
30
0
0
VERTEX
8
0
10
12.797812500000001
20
5.15414375
30
0
0
VERTEX
8
0
10
12.876953125
20
5.117240625
30
0
0
VERTEX
8
0
10
12.95900625
20
5.087375000000001
30
0
0
VERTEX
8
0
10
13.043353125000001
20
5.064775
30
0
0
VERTEX
8
0
10
13.12935
20
5.049609375
30
0
0
VERTEX
8
0
10
13.2163375
20
5.042
30
0
0
VERTEX
8
0
10
13.303662500000002
20
5.042
30
0
0
SEQEND
0
POLYLINE
66
1
8
16_copper
10
0.0
20
0.0
30
0.0
70
1
0
VERTEX
8
0
10
26.158328125
20
3.9774656250000002
30
0
42
0.9163316085759912
0
VERTEX
8
0
10
26.080440625
20
5.76135
30
0
0
VERTEX
8
0
10
24.211559375
20
5.76135
30
0
42
0.23128227498517034
0
VERTEX
8
0
10
23.520896875000002
20
5.3848
30
0
0
VERTEX
8
0
10
15.36625
20
5.3848
30
0
0
VERTEX
8
0
10
14.260000000000002
20
6.49105
30
0
0
VERTEX
8
0
10
14.260000000000002
20
8.0856625
30
0
42
0.5567543919708419
0
VERTEX
8
0
10
12.776200000000001
20
8.917378125
30
0
0
VERTEX
8
0
10
12.776200000000001
20
14.0716
30
0
0
VERTEX
8
0
10
13.2842
20
14.0716
30
0
0
VERTEX
8
0
10
13.2842
20
16.3068
30
0
0
VERTEX
8
0
10
12.065000000000001
20
16.3068
30
0
0
VERTEX
8
0
10
12.065000000000001
20
14.0716
30
0
0
VERTEX
8
0
10
12.623800000000001
20
14.0716
30
0
0
VERTEX
8
0
10
12.623800000000001
20
8.813571875000001
30
0
42
0.212522843255544
0
VERTEX
8
0
10
12.26
20
8.0856625
30
0
0
VERTEX
8
0
10
12.26
20
5.9983375
30
0
42
0.8171841997087763
0
VERTEX
8
0
10
14.19683125
20
5.692118750000001
30
0
0
VERTEX
8
0
10
15.024475
20
4.8644750000000005
30
0
42
0.19891236737965798
0
VERTEX
8
0
10
15.24
20
4.7752
30
0
0
VERTEX
8
0
10
23.359825
20
4.7752
30
0
42
0.372294721201448
0
VERTEX
8
0
10
24.211559375
20
3.97065
30
0
0
VERTEX
8
0
10
26.080440625
20
3.97065
30
0
0
SEQEND
0
POLYLINE
66
1
8
1_copper
10
0.0
20
0.0
30
0.0
70
1
0
VERTEX
8
0
10
21.346440625
20
15.503271875000001
30
0
42
0.818105841543916
0
VERTEX
8
0
10
21.3487
20
16.246121875
30
0
0
VERTEX
8
0
10
21.3487
20
21.2725
30
0
42
0.4142135623730951
0
VERTEX
8
0
10
21.2725
20
21.3487
30
0
0
VERTEX
8
0
10
20.458000000000002
20
21.3487
30
0
0
VERTEX
8
0
10
20.458000000000002
20
22.266000000000002
30
0
0
VERTEX
8
0
10
18.658
20
22.266000000000002
30
0
0
VERTEX
8
0
10
18.658
20
21.6662
30
0
0
VERTEX
8
0
10
16.902
20
21.6662
30
0
0
VERTEX
8
0
10
16.902
20
22.266000000000002
30
0
0
VERTEX
8
0
10
15.102
20
22.266000000000002
30
0
0
VERTEX
8
0
10
15.102
20
20.666
30
0
0
VERTEX
8
0
10
16.902
20
20.666
30
0
0
VERTEX
8
0
10
16.902
20
21.5138
30
0
0
VERTEX
8
0
10
18.658
20
21.5138
30
0
0
VERTEX
8
0
10
18.658
20
20.666
30
0
0
VERTEX
8
0
10
20.458000000000002
20
20.666
30
0
0
VERTEX
8
0
10
20.458000000000002
20
21.1963
30
0
0
VERTEX
8
0
10
21.1963
20
21.1963
30
0
0
VERTEX
8
0
10
21.1963
20
16.246121875
30
0
0
VERTEX
8
0
10
21.150671875
20
16.233896875
30
0
0
VERTEX
8
0
10
21.10486875
20
16.214925
30
0
0
VERTEX
8
0
10
21.06193125
20
16.190137500000002
30
0
0
VERTEX
8
0
10
21.0226
20
16.15995625
30
0
0
VERTEX
8
0
10
20.98754375
20
16.1249
30
0
0
VERTEX
8
0
10
20.957362500000002
20
16.08556875
30
0
0
VERTEX
8
0
10
20.932575
20
16.04263125
30
0
0
VERTEX
8
0
10
20.913603125
20
15.996828125
30
0
0
VERTEX
8
0
10
20.900771875
20
15.948940625
30
0
0
VERTEX
8
0
10
20.8943
20
15.8997875
30
0
0
VERTEX
8
0
10
20.8943
20
15.850212500000001
30
0
0
VERTEX
8
0
10
20.900771875
20
15.801059375000001
30
0
0
VERTEX
8
0
10
20.913603125
20
15.753171875000001
30
0
0
VERTEX
8
0
10
20.932575
20
15.70736875
30
0
0
VERTEX
8
0
10
20.957362500000002
20
15.664431250000002
30
0
0
VERTEX
8
0
10
20.98754375
20
15.625100000000002
30
0
0
VERTEX
8
0
10
21.0226
20
15.590043750000001
30
0
0
VERTEX
8
0
10
21.06193125
20
15.559862500000001
30
0
0
VERTEX
8
0
10
21.10486875
20
15.535075
30
0
0
VERTEX
8
0
10
21.150671875
20
15.516103125
30
0
0
VERTEX
8
0
10
21.198559375000002
20
15.503271875000001
30
0
0
VERTEX
8
0
10
21.247712500000002
20
15.4968
30
0
0
VERTEX
8
0
10
21.2972875
20
15.4968
30
0
0
SEQEND
0
POLYLINE
66
1
8
16_copper
10
0.0
20
0.0
30
0.0
70
1
0
VERTEX
8
0
10
23.291800000000002
20
15.2781
30
0
0
VERTEX
8
0
10
22.6822
20
15.2781
30
0
0
VERTEX
8
0
10
22.6822
20
14.5730625
30
0
0
VERTEX
8
0
10
21.58880625
20
15.666456250000001
30
0
42
0.8155401159332228
0
VERTEX
8
0
10
21.06395625
20
16.19130625
30
0
0
VERTEX
8
0
10
21.00888125
20
16.246381250000002
30
0
42
0.19891236737965798
0
VERTEX
8
0
10
20.955000000000002
20
16.2687
30
0
0
VERTEX
8
0
10
18.446562500000002
20
16.2687
30
0
0
VERTEX
8
0
10
17.83388125
20
16.88138125
30
0
42
0.19891236737965798
0
VERTEX
8
0
10
17.78
20
16.9037
30
0
0
VERTEX
8
0
10
16.8275
20
16.9037
30
0
42
0.19891236737965798
0
VERTEX
8
0
10
16.77361875
20
16.88138125
30
0
0
VERTEX
8
0
10
15.595600000000001
20
15.7033625
30
0
0
VERTEX
8
0
10
15.595600000000001
20
16.3068
30
0
0
VERTEX
8
0
10
14.3764
20
16.3068
30
0
0
VERTEX
8
0
10
14.3764
20
14.0716
30
0
0
VERTEX
8
0
10
15.595600000000001
20
14.0716
30
0
0
VERTEX
8
0
10
15.595600000000001
20
15.487837500000001
30
0
0
VERTEX
8
0
10
16.8590625
20
16.7513
30
0
0
VERTEX
8
0
10
17.7484375
20
16.7513
30
0
0
VERTEX
8
0
10
18.36111875
20
16.13861875
30
0
42
0.19891236737965798
0
VERTEX
8
0
10
18.415
20
16.116300000000003
30
0
0
VERTEX
8
0
10
20.923437500000002
20
16.116300000000003
30
0
0
VERTEX
8
0
10
20.95619375
20
16.08354375
30
0
42
0.8155401159332228
0
VERTEX
8
0
10
21.48104375
20
15.558693750000002
30
0
0
VERTEX
8
0
10
22.6822
20
14.357537500000001
30
0
0
VERTEX
8
0
10
22.6822
20
13.0683
30
0
0
VERTEX
8
0
10
23.291800000000002
20
13.0683
30
0
0
SEQEND
0
POLYLINE
66
1
8
1_copper
10
0.0
20
0.0
30
0.0
70
1
0
VERTEX
8
0
10
26.158328125
20
8.977465625
30
0
42
0.9163316085759912
0
VERTEX
8
0
10
26.080440625
20
10.76135
30
0
0
VERTEX
8
0
10
24.211559375
20
10.76135
30
0
42
0.9572930243014984
0
VERTEX
8
0
10
24.211559375
20
8.970650000000001
30
0
0
VERTEX
8
0
10
26.080440625
20
8.970650000000001
30
0
0
SEQEND
0
POLYLINE
66
1
8
16_copper
10
0.0
20
0.0
30
0.0
70
1
0
VERTEX
8
0
10
24.336490625
20
6.92285
30
0
0
VERTEX
8
0
10
24.34915
20
6.9355093750000005
30
0
0
VERTEX
8
0
10
24.356
20
6.952050000000001
30
0
0
VERTEX
8
0
10
24.356
20
7.77995
30
0
0
VERTEX
8
0
10
24.34915
20
7.796490625000001
30
0
0
VERTEX
8
0
10
24.336490625
20
7.809150000000001
30
0
0
VERTEX
8
0
10
24.319950000000002
20
7.816000000000001
30
0
0
VERTEX
8
0
10
23.09205
20
7.816000000000001
30
0
0
VERTEX
8
0
10
23.075509375000003
20
7.809150000000001
30
0
0
VERTEX
8
0
10
23.06285
20
7.796490625000001
30
0
0
VERTEX
8
0
10
23.056
20
7.77995
30
0
0
VERTEX
8
0
10
23.056
20
7.670800000000001
30
0
0
VERTEX
8
0
10
20.65630625
20
7.670800000000001
30
0
0
VERTEX
8
0
10
20.6248
20
7.95436875
30
0
0
VERTEX
8
0
10
20.6248
20
9.2202
30
0
0
VERTEX
8
0
10
23.630234375
20
9.2202
30
0
42
0.1824141951422881
0
VERTEX
8
0
10
24.211559375
20
8.970650000000001
30
0
0
VERTEX
8
0
10
26.080440625
20
8.970650000000001
30
0
42
0.9572930243014984
0
VERTEX
8
0
10
26.080440625
20
10.76135
30
0
0
VERTEX
8
0
10
24.211559375
20
10.76135
30
0
42
0.4132699449156798
0
VERTEX
8
0
10
23.3553
20
9.8298
30
0
0
VERTEX
8
0
10
20.32
20
9.8298
30
0
42
0.4142135623730951
0
VERTEX
8
0
10
20.0152
20
9.525
30
0
0
VERTEX
8
0
10
20.0152
20
7.9375
30
0
42
0.027671364745980028
0
VERTEX
8
0
10
20.017065625
20
7.903840625
30
0
0
VERTEX
8
0
10
20.080565625000002
20
7.3323406250000005
30
0
42
0.3821619133551318
0
VERTEX
8
0
10
20.3835
20
7.0612
30
0
0
VERTEX
8
0
10
23.056
20
7.0612
30
0
0
VERTEX
8
0
10
23.056
20
6.952050000000001
30
0
0
VERTEX
8
0
10
23.06285
20
6.9355093750000005
30
0
0
VERTEX
8
0
10
23.075509375000003
20
6.92285
30
0
0
VERTEX
8
0
10
23.09205
20
6.916
30
0
0
VERTEX
8
0
10
24.319950000000002
20
6.916
30
0
0
SEQEND
0
POLYLINE
66
1
8
1_copper
10
0.0
20
0.0
30
0.0
70
1
0
VERTEX
8
0
10
16.7959375
20
2.6162
30
0
0
VERTEX
8
0
10
12.087978125000001
20
2.6162
30
0
42
0.29402460951028686
0
VERTEX
8
0
10
11.2036625
20
3.242
30
0
0
VERTEX
8
0
10
9.1163375
20
3.242
30
0
42
0.9572902530839056
0
VERTEX
8
0
10
9.1163375
20
1.242
30
0
0
VERTEX
8
0
10
11.2036625
20
1.242
30
0
42
0.4679296233122367
0
VERTEX
8
0
10
12.135843750000001
20
2.4638
30
0
0
VERTEX
8
0
10
16.8275
20
2.4638
30
0
42
0.19891236737965798
0
VERTEX
8
0
10
16.88138125
20
2.48611875
30
0
0
VERTEX
8
0
10
18.15138125
20
3.75611875
30
0
42
0.19891236737965798
0
VERTEX
8
0
10
18.1737
20
3.81
30
0
0
VERTEX
8
0
10
18.1737
20
4.413437500000001
30
0
0
VERTEX
8
0
10
21.961381250000002
20
8.201118750000001
30
0
42
0.19891236737965798
0
VERTEX
8
0
10
21.983700000000002
20
8.255
30
0
0
VERTEX
8
0
10
21.983700000000002
20
16.1925
30
0
42
0.12746122262703816
0
VERTEX
8
0
10
21.974109375
20
16.22950625
30
0
0
VERTEX
8
0
10
21.6662
20
16.78374375
30
0
0
VERTEX
8
0
10
21.6662
20
20.537375
30
0
0
VERTEX
8
0
10
22.01448125
20
20.816000000000003
30
0
0
VERTEX
8
0
10
23.86
20
20.816000000000003
30
0
0
VERTEX
8
0
10
23.86
20
22.316000000000003
30
0
0
VERTEX
8
0
10
21.86
20
22.316000000000003
30
0
0
VERTEX
8
0
10
21.86
20
20.887584375
30
0
0
VERTEX
8
0
10
21.542396875
20
20.633503125
30
0
42
0.2278361073091209
0
VERTEX
8
0
10
21.5138
20
20.574
30
0
0
VERTEX
8
0
10
21.5138
20
16.764
30
0
42
0.12746122262703816
0
VERTEX
8
0
10
21.523390625
20
16.726993750000002
30
0
0
VERTEX
8
0
10
21.831300000000002
20
16.17275625
30
0
0
VERTEX
8
0
10
21.831300000000002
20
8.2865625
30
0
0
VERTEX
8
0
10
18.1737
20
4.6289625
30
0
0
VERTEX
8
0
10
18.1737
20
10.795
30
0
42
0.19891236737965798
0
VERTEX
8
0
10
18.15138125
20
10.84888125
30
0
0
VERTEX
8
0
10
16.902
20
12.0982625
30
0
0
VERTEX
8
0
10
16.902
20
13.624
30
0
0
VERTEX
8
0
10
15.102
20
13.624
30
0
0
VERTEX
8
0
10
15.102
20
12.024000000000001
30
0
0
VERTEX
8
0
10
16.7607375
20
12.024000000000001
30
0
0
VERTEX
8
0
10
18.0213
20
10.7634375
30
0
0
VERTEX
8
0
10
18.0213
20
3.8415625
30
0
0
SEQEND
0
POLYLINE
66
1
8
1_copper
10
0.0
20
0.0
30
0.0
70
1
0
VERTEX
8
0
10
7.29065
20
5.049609375
30
0
42
0.36396999178744105
0
VERTEX
8
0
10
8.16
20
5.9983375
30
0
0
VERTEX
8
0
10
8.16
20
8.0856625
30
0
42
0.9572902530839056
0
VERTEX
8
0
10
6.16
20
8.0856625
30
0
0
VERTEX
8
0
10
6.16
20
5.9983375
30
0
0
VERTEX
8
0
10
6.1676093750000005
20
5.9113500000000005
30
0
0
VERTEX
8
0
10
6.182775
20
5.825353125
30
0
0
VERTEX
8
0
10
6.205375
20
5.74100625
30
0
0
VERTEX
8
0
10
6.235240625
20
5.658953125
30
0
0
VERTEX
8
0
10
6.272143750000001
20
5.5798125
30
0
0
VERTEX
8
0
10
6.3158062500000005
20
5.5041875000000005
30
0
0
VERTEX
8
0
10
6.3658906250000005
20
5.432659375
30
0
0
VERTEX
8
0
10
6.42201875
20
5.365765625
30
0
0
VERTEX
8
0
10
6.483765625
20
5.30401875
30
0
0
VERTEX
8
0
10
6.550659375
20
5.247890625
30
0
0
VERTEX
8
0
10
6.6221875
20
5.19780625
30
0
0
VERTEX
8
0
10
6.6978125
20
5.15414375
30
0
0
VERTEX
8
0
10
6.776953125
20
5.117240625
30
0
0
VERTEX
8
0
10
6.85900625
20
5.087375000000001
30
0
0
VERTEX
8
0
10
6.943353125000001
20
5.064775
30
0
0
VERTEX
8
0
10
7.02935
20
5.049609375
30
0
0
VERTEX
8
0
10
7.1163375
20
5.042
30
0
0
VERTEX
8
0
10
7.2036625
20
5.042
30
0
0
SEQEND
0
POLYLINE
66
1
8
16_copper
10
0.0
20
0.0
30
0.0
70
1
0
VERTEX
8
0
10
22.156000000000002
20
8.72995
30
0
0
VERTEX
8
0
10
22.149150000000002
20
8.746490625
30
0
0
VERTEX
8
0
10
22.136490625
20
8.75915
30
0
0
VERTEX
8
0
10
22.11995
20
8.766
30
0
0
VERTEX
8
0
10
20.89205
20
8.766
30
0
0
VERTEX
8
0
10
20.875509375
20
8.75915
30
0
0
VERTEX
8
0
10
20.86285
20
8.746490625
30
0
0
VERTEX
8
0
10
20.856
20
8.72995
30
0
0
VERTEX
8
0
10
20.856
20
7.90205
30
0
0
VERTEX
8
0
10
20.86285
20
7.885509375000001
30
0
0
VERTEX
8
0
10
20.875509375
20
7.872850000000001
30
0
0
VERTEX
8
0
10
20.89205
20
7.8660000000000005
30
0
0
VERTEX
8
0
10
22.11995
20
7.8660000000000005
30
0
0
VERTEX
8
0
10
22.136490625
20
7.872850000000001
30
0
0
VERTEX
8
0
10
22.149150000000002
20
7.885509375000001
30
0
0
VERTEX
8
0
10
22.156000000000002
20
7.90205
30
0
0
VERTEX
8
0
10
22.156000000000002
20
8.077200000000001
30
0
0
VERTEX
8
0
10
24.3338
20
8.077200000000001
30
0
0
VERTEX
8
0
10
25.099443750000002
20
7.413640625
30
0
0
VERTEX
8
0
10
25.034896875
20
7.362003125
30
0
42
0.02766976236207987
0
VERTEX
8
0
10
25.02861875
20
7.35638125
30
0
0
VERTEX
8
0
10
23.4634375
20
5.7912
30
0
0
VERTEX
8
0
10
17.8115625
20
5.7912
30
0
0
VERTEX
8
0
10
14.02388125
20
9.57888125
30
0
42
0.19891236737965798
0
VERTEX
8
0
10
13.97
20
9.6012
30
0
0
VERTEX
8
0
10
13.411200000000001
20
9.6012
30
0
0
VERTEX
8
0
10
13.411200000000001
20
11.080937500000001
30
0
0
VERTEX
8
0
10
16.6878
20
14.357537500000001
30
0
0
VERTEX
8
0
10
16.6878
20
14.0716
30
0
0
VERTEX
8
0
10
17.907
20
14.0716
30
0
0
VERTEX
8
0
10
17.907
20
16.3068
30
0
0
VERTEX
8
0
10
16.6878
20
16.3068
30
0
0
VERTEX
8
0
10
16.6878
20
14.5730625
30
0
0
VERTEX
8
0
10
13.281118750000001
20
11.16638125
30
0
42
0.19891236737965798
0
VERTEX
8
0
10
13.2588
20
11.1125
30
0
0
VERTEX
8
0
10
13.2588
20
9.525
30
0
42
0.4142135623730951
0
VERTEX
8
0
10
13.335
20
9.4488
30
0
0
VERTEX
8
0
10
13.938437500000001
20
9.4488
30
0
0
VERTEX
8
0
10
17.72611875
20
5.66111875
30
0
42
0.19891236737965798
0
VERTEX
8
0
10
17.78
20
5.638800000000001
30
0
0
VERTEX
8
0
10
23.495
20
5.638800000000001
30
0
42
0.19891236737965798
0
VERTEX
8
0
10
23.54888125
20
5.66111875
30
0
0
VERTEX
8
0
10
25.133384375000002
20
7.245621875
30
0
0
VERTEX
8
0
10
25.2163875
20
7.312025
30
0
0
VERTEX
8
0
10
27.2542
20
5.5139531250000005
30
0
0
VERTEX
8
0
10
27.2542
20
3.1623
30
0
0
VERTEX
8
0
10
19.900000000000002
20
3.1623
30
0
0
VERTEX
8
0
10
19.900000000000002
20
4.42
30
0
0
VERTEX
8
0
10
18.2
20
4.42
30
0
0
VERTEX
8
0
10
18.2
20
2.250334375
30
0
0
VERTEX
8
0
10
17.67308125
20
1.8288
30
0
0
VERTEX
8
0
10
12.0707
20
1.8288
30
0
42
0.5311751057608943
0
VERTEX
8
0
10
11.2036625
20
3.242
30
0
0
VERTEX
8
0
10
9.1163375
20
3.242
30
0
42
0.2237865698062653
0
VERTEX
8
0
10
8.361309375000001
20
2.8448
30
0
0
VERTEX
8
0
10
7.6073
20
2.8448
30
0
0
VERTEX
8
0
10
7.6073
20
5.147203125
30
0
42
0.27234959672646836
0
VERTEX
8
0
10
8.16
20
5.9983375
30
0
0
VERTEX
8
0
10
8.16
20
8.0856625
30
0
42
0.9572902530839056
0
VERTEX
8
0
10
6.16
20
8.0856625
30
0
0
VERTEX
8
0
10
6.16
20
5.9983375
30
0
42
0.3549050374265733
0
VERTEX
8
0
10
6.9977
20
5.055190625
30
0
0
VERTEX
8
0
10
6.9977
20
2.54
30
0
42
0.4142135623730951
0
VERTEX
8
0
10
7.3025
20
2.2352000000000003
30
0
0
VERTEX
8
0
10
8.16
20
2.2352000000000003
30
0
42
0.39951756018363743
0
VERTEX
8
0
10
9.1163375
20
1.242
30
0
0
VERTEX
8
0
10
10.998384375
20
1.242
30
0
42
0.09642764889111985
0
VERTEX
8
0
10
11.1125
20
1.2192
30
0
0
VERTEX
8
0
10
17.78
20
1.2192
30
0
42
0.17030279759836783
0
VERTEX
8
0
10
17.97040625
20
1.2859906250000002
30
0
0
VERTEX
8
0
10
19.13791875
20
2.22
30
0
0
VERTEX
8
0
10
19.900000000000002
20
2.22
30
0
0
VERTEX
8
0
10
19.900000000000002
20
2.5527
30
0
0
VERTEX
8
0
10
27.559
20
2.5527
30
0
42
0.4142135623730951
0
VERTEX
8
0
10
27.8638
20
2.8575
30
0
0
VERTEX
8
0
10
27.8638
20
5.6515
30
0
42
0.21518584920148517
0
VERTEX
8
0
10
27.760662500000002
20
5.880050000000001
30
0
0
VERTEX
8
0
10
25.6016625
20
7.78505
30
0
42
0.002223394365985392
0
VERTEX
8
0
10
25.599621875
20
7.786834375000001
30
0
0
VERTEX
8
0
10
25.027665625
20
8.28253125
30
0
0
VERTEX
8
0
10
27.619453125
20
8.178859375
30
0
42
0.42597696108618316
0
VERTEX
8
0
10
27.698700000000002
20
8.255
30
0
0
VERTEX
8
0
10
27.698700000000002
20
15.24
30
0
42
0.19891236737965798
0
VERTEX
8
0
10
27.676381250000002
20
15.29388125
30
0
0
VERTEX
8
0
10
27.35888125
20
15.61138125
30
0
42
0.19891236737965798
0
VERTEX
8
0
10
27.305
20
15.633700000000001
30
0
0
VERTEX
8
0
10
27.0637
20
15.633700000000001
30
0
0
VERTEX
8
0
10
27.0637
20
19.799300000000002
30
0
0
VERTEX
8
0
10
27.1018
20
19.799300000000002
30
0
0
VERTEX
8
0
10
27.1018
20
22.0091
30
0
0
VERTEX
8
0
10
26.4922
20
22.0091
30
0
0
VERTEX
8
0
10
26.4922
20
19.799300000000002
30
0
0
VERTEX
8
0
10
26.9113
20
19.799300000000002
30
0
0
VERTEX
8
0
10
26.9113
20
15.557500000000001
30
0
42
0.4142135623730951
0
VERTEX
8
0
10
26.9875
20
15.481300000000001
30
0
0
VERTEX
8
0
10
27.2734375
20
15.481300000000001
30
0
0
VERTEX
8
0
10
27.546300000000002
20
15.2084375
30
0
0
VERTEX
8
0
10
27.546300000000002
20
8.334309375
30
0
0
VERTEX
8
0
10
24.843159375000003
20
8.4424375
30
0
0
VERTEX
8
0
10
24.647121875
20
8.612334375
30
0
42
0.18044289422283588
0
VERTEX
8
0
10
24.4475
20
8.6868
30
0
0
VERTEX
8
0
10
22.156000000000002
20
8.6868
30
0
0
SEQEND
0
POLYLINE
66
1
8
1_copper
10
0.0
20
0.0
30
0.0
70
1
0
VERTEX
8
0
10
20.458000000000002
20
19.3977375
30
0
0
VERTEX
8
0
10
20.687940625
20
19.627678125
30
0
0
VERTEX
8
0
10
20.711440625
20
19.630771875
30
0
0
VERTEX
8
0
10
20.759328125
20
19.643603125000002
30
0
42
0.9999999999999999
0
VERTEX
8
0
10
20.515671875000002
20
20.361396875
30
0
0
VERTEX
8
0
10
20.46986875
20
20.342425000000002
30
0
42
0.64839485357194
0
VERTEX
8
0
10
20.496346875
20
19.651609375
30
0
0
VERTEX
8
0
10
20.310737500000002
20
19.466
30
0
0
VERTEX
8
0
10
18.658
20
19.466
30
0
0
VERTEX
8
0
10
18.658
20
17.866
30
0
0
VERTEX
8
0
10
20.458000000000002
20
17.866
30
0
0
SEQEND
0
POLYLINE
66
1
8
16_copper
10
0.0
20
0.0
30
0.0
70
1
0
VERTEX
8
0
10
20.711440625
20
19.630771875
30
0
42
0.532534426518739
0
VERTEX
8
0
10
20.95380625
20
20.21104375
30
0
0
VERTEX
8
0
10
21.3040625
20
20.5613
30
0
0
VERTEX
8
0
10
22.6822
20
20.5613
30
0
0
VERTEX
8
0
10
22.6822
20
19.799300000000002
30
0
0
VERTEX
8
0
10
23.291800000000002
20
19.799300000000002
30
0
0
VERTEX
8
0
10
23.291800000000002
20
22.0091
30
0
0
VERTEX
8
0
10
22.6822
20
22.0091
30
0
0
VERTEX
8
0
10
22.6822
20
20.7137
30
0
0
VERTEX
8
0
10
21.2725
20
20.7137
30
0
42
0.19891236737965798
0
VERTEX
8
0
10
21.21861875
20
20.691381250000003
30
0
0
VERTEX
8
0
10
20.84604375
20
20.31880625
30
0
0
VERTEX
8
0
10
20.805131250000002
20
20.342425000000002
30
0
0
VERTEX
8
0
10
20.759328125
20
20.361396875
30
0
0
VERTEX
8
0
10
20.711440625
20
20.374228125000002
30
0
0
VERTEX
8
0
10
20.6622875
20
20.3807
30
0
0
VERTEX
8
0
10
20.6127125
20
20.3807
30
0
0
VERTEX
8
0
10
20.563559375
20
20.374228125000002
30
0
0
VERTEX
8
0
10
20.515671875000002
20
20.361396875
30
0
0
VERTEX
8
0
10
20.46986875
20
20.342425000000002
30
0
0
VERTEX
8
0
10
20.426931250000003
20
20.3176375
30
0
0
VERTEX
8
0
10
20.387600000000003
20
20.28745625
30
0
0
VERTEX
8
0
10
20.352543750000002
20
20.2524
30
0
0
VERTEX
8
0
10
20.3223625
20
20.21306875
30
0
0
VERTEX
8
0
10
20.297575000000002
20
20.17013125
30
0
0
VERTEX
8
0
10
20.278603125
20
20.124328125
30
0
0
VERTEX
8
0
10
20.265771875000002
20
20.076440625
30
0
0
VERTEX
8
0
10
20.2593
20
20.0272875
30
0
0
VERTEX
8
0
10
20.2593
20
19.977712500000003
30
0
0
VERTEX
8
0
10
20.265771875000002
20
19.928559375000003
30
0
0
VERTEX
8
0
10
20.278603125
20
19.880671875
30
0
0
VERTEX
8
0
10
20.297575000000002
20
19.834868750000002
30
0
0
VERTEX
8
0
10
20.3223625
20
19.79193125
30
0
0
VERTEX
8
0
10
20.352543750000002
20
19.7526
30
0
0
VERTEX
8
0
10
20.387600000000003
20
19.71754375
30
0
0
VERTEX
8
0
10
20.426931250000003
20
19.687362500000003
30
0
0
VERTEX
8
0
10
20.46986875
20
19.662575
30
0
0
VERTEX
8
0
10
20.515671875000002
20
19.643603125000002
30
0
0
VERTEX
8
0
10
20.563559375
20
19.630771875
30
0
0
VERTEX
8
0
10
20.6127125
20
19.6243
30
0
0
VERTEX
8
0
10
20.6622875
20
19.6243
30
0
0
SEQEND
0
POLYLINE
66
1
8
1_copper
10
0.0
20
0.0
30
0.0
70
1
0
VERTEX
8
0
10
9.766300000000001
20
4.7625
30
0
42
0.4142135623730951
0
VERTEX
8
0
10
9.842500000000001
20
4.6863
30
0
0
VERTEX
8
0
10
16.283
20
4.6863
30
0
0
VERTEX
8
0
10
16.283
20
3.8190000000000004
30
0
0
VERTEX
8
0
10
17.753
20
3.8190000000000004
30
0
0
VERTEX
8
0
10
17.753
20
5.089
30
0
0
VERTEX
8
0
10
16.283
20
5.089
30
0
0
VERTEX
8
0
10
16.283
20
4.8387
30
0
0
VERTEX
8
0
10
9.918700000000001
20
4.8387
30
0
0
VERTEX
8
0
10
9.918700000000001
20
13.97
30
0
42
0.19891236737965798
0
VERTEX
8
0
10
9.896381250000001
20
14.02388125
30
0
0
VERTEX
8
0
10
9.315262500000001
20
14.605
30
0
0
VERTEX
8
0
10
9.546262500000001
20
14.836
30
0
0
VERTEX
8
0
10
9.700000000000001
20
14.836
30
0
0
VERTEX
8
0
10
9.700000000000001
20
14.9897375
30
0
0
VERTEX
8
0
10
10.21388125
20
15.503618750000001
30
0
42
0.19891236737965798
0
VERTEX
8
0
10
10.2362
20
15.557500000000001
30
0
0
VERTEX
8
0
10
10.2362
20
15.8434375
30
0
0
VERTEX
8
0
10
12.258762500000001
20
17.866
30
0
0
VERTEX
8
0
10
13.600000000000001
20
17.866
30
0
0
VERTEX
8
0
10
13.600000000000001
20
19.466
30
0
0
VERTEX
8
0
10
11.8
20
19.466
30
0
0
VERTEX
8
0
10
11.8
20
17.866
30
0
0
VERTEX
8
0
10
12.0432375
20
17.866
30
0
0
VERTEX
8
0
10
10.10611875
20
15.92888125
30
0
42
0.19891236737965798
0
VERTEX
8
0
10
10.0838
20
15.875
30
0
0
VERTEX
8
0
10
10.0838
20
15.5890625
30
0
0
VERTEX
8
0
10
9.700000000000001
20
15.2052625
30
0
0
VERTEX
8
0
10
9.700000000000001
20
15.336
30
0
0
VERTEX
8
0
10
7.7
20
15.336
30
0
0
VERTEX
8
0
10
7.7
20
14.836
30
0
0
VERTEX
8
0
10
8.8687375
20
14.836
30
0
0
VERTEX
8
0
10
9.766300000000001
20
13.938437500000001
30
0
0
SEQEND
0
POLYLINE
66
1
8
1_copper
10
0.0
20
0.0
30
0.0
70
1
0
VERTEX
8
0
10
9.084262500000001
20
14.836
30
0
0
VERTEX
8
0
10
9.3307375
20
14.836
30
0
0
VERTEX
8
0
10
9.2075
20
14.7127625
30
0
0
SEQEND
0
POLYLINE
66
1
8
1_copper
10
0.0
20
0.0
30
0.0
70
1
0
VERTEX
8
0
10
17.753
20
9.389000000000001
30
0
0
VERTEX
8
0
10
16.283
20
9.389000000000001
30
0
0
VERTEX
8
0
10
16.283
20
8.9662
30
0
0
VERTEX
8
0
10
15.3162
20
8.9662
30
0
0
VERTEX
8
0
10
15.3162
20
9.471378125000001
30
0
0
VERTEX
8
0
10
15.361828125
20
9.483603125
30
0
42
0.9999999999999999
0
VERTEX
8
0
10
15.118171875000002
20
10.201396875
30
0
0
VERTEX
8
0
10
15.07236875
20
10.182425
30
0
42
0.4842926324145619
0
VERTEX
8
0
10
14.948443750000001
20
9.6012
30
0
0
VERTEX
8
0
10
13.684062500000001
20
9.6012
30
0
0
VERTEX
8
0
10
11.5062
20
11.7790625
30
0
0
VERTEX
8
0
10
11.5062
20
16.478437500000002
30
0
0
VERTEX
8
0
10
11.7790625
20
16.7513
30
0
0
VERTEX
8
0
10
13.0175
20
16.7513
30
0
42
0.19891236737965798
0
VERTEX
8
0
10
13.07138125
20
16.77361875
30
0
0
VERTEX
8
0
10
14.02388125
20
17.72611875
30
0
42
0.19891236737965798
0
VERTEX
8
0
10
14.0462
20
17.78
30
0
0
VERTEX
8
0
10
14.0462
20
20.0025
30
0
42
0.4142135623730951
0
VERTEX
8
0
10
13.97
20
20.0787
30
0
0
VERTEX
8
0
10
11.7475
20
20.0787
30
0
42
0.19891236737965798
0
VERTEX
8
0
10
11.69361875
20
20.05638125
30
0
0
VERTEX
8
0
10
11.37611875
20
19.738881250000002
30
0
42
0.19891236737965798
0
VERTEX
8
0
10
11.3538
20
19.685000000000002
30
0
0
VERTEX
8
0
10
11.3538
20
18.4912
30
0
0
VERTEX
8
0
10
9.700000000000001
20
18.4912
30
0
0
VERTEX
8
0
10
9.700000000000001
20
18.536
30
0
0
VERTEX
8
0
10
7.7
20
18.536
30
0
0
VERTEX
8
0
10
7.7
20
18.036
30
0
0
VERTEX
8
0
10
9.700000000000001
20
18.036
30
0
0
VERTEX
8
0
10
9.700000000000001
20
18.338800000000003
30
0
0
VERTEX
8
0
10
11.43
20
18.338800000000003
30
0
42
0.4142135623730951
0
VERTEX
8
0
10
11.5062
20
18.415
30
0
0
VERTEX
8
0
10
11.5062
20
19.653437500000003
30
0
0
VERTEX
8
0
10
11.7790625
20
19.9263
30
0
0
VERTEX
8
0
10
13.8938
20
19.9263
30
0
0
VERTEX
8
0
10
13.8938
20
17.8115625
30
0
0
VERTEX
8
0
10
12.9859375
20
16.9037
30
0
0
VERTEX
8
0
10
11.7475
20
16.9037
30
0
42
0.19891236737965798
0
VERTEX
8
0
10
11.69361875
20
16.88138125
30
0
0
VERTEX
8
0
10
11.37611875
20
16.56388125
30
0
42
0.19891236737965798
0
VERTEX
8
0
10
11.3538
20
16.51
30
0
0
VERTEX
8
0
10
11.3538
20
11.7475
30
0
42
0.19891236737965798
0
VERTEX
8
0
10
11.37611875
20
11.69361875
30
0
0
VERTEX
8
0
10
13.59861875
20
9.47111875
30
0
42
0.19891236737965798
0
VERTEX
8
0
10
13.6525
20
9.4488
30
0
0
VERTEX
8
0
10
15.1638
20
9.4488
30
0
0
VERTEX
8
0
10
15.1638
20
8.89
30
0
42
0.4142135623730951
0
VERTEX
8
0
10
15.24
20
8.8138
30
0
0
VERTEX
8
0
10
16.283
20
8.8138
30
0
0
VERTEX
8
0
10
16.283
20
8.119
30
0
0
VERTEX
8
0
10
17.753
20
8.119
30
0
0
SEQEND
0
POLYLINE
66
1
8
16_copper
10
0.0
20
0.0
30
0.0
70
1
0
VERTEX
8
0
10
15.313940625
20
9.470771875
30
0
42
0.532534426518739
0
VERTEX
8
0
10
15.55630625
20
10.05104375
30
0
0
VERTEX
8
0
10
16.3252625
20
10.82
30
0
0
VERTEX
8
0
10
17.36
20
10.82
30
0
0
VERTEX
8
0
10
17.36
20
13.020000000000001
30
0
0
VERTEX
8
0
10
15.66
20
13.020000000000001
30
0
0
VERTEX
8
0
10
15.66
20
10.82
30
0
0
VERTEX
8
0
10
16.1097375
20
10.82
30
0
0
VERTEX
8
0
10
15.44854375
20
10.158806250000001
30
0
0
VERTEX
8
0
10
15.407631250000001
20
10.182425
30
0
0
VERTEX
8
0
10
15.361828125
20
10.201396875
30
0
0
VERTEX
8
0
10
15.313940625
20
10.214228125
30
0
0
VERTEX
8
0
10
15.2647875
20
10.2207
30
0
0
VERTEX
8
0
10
15.215212500000002
20
10.2207
30
0
0
VERTEX
8
0
10
15.166059375000001
20
10.214228125
30
0
0
VERTEX
8
0
10
15.118171875000002
20
10.201396875
30
0
0
VERTEX
8
0
10
15.07236875
20
10.182425
30
0
0
VERTEX
8
0
10
15.02943125
20
10.1576375
30
0
0
VERTEX
8
0
10
14.9901
20
10.12745625
30
0
0
VERTEX
8
0
10
14.955043750000002
20
10.092400000000001
30
0
0
VERTEX
8
0
10
14.924862500000001
20
10.053068750000001
30
0
0
VERTEX
8
0
10
14.900075000000001
20
10.01013125
30
0
0
VERTEX
8
0
10
14.881103125000001
20
9.964328125
30
0
0
VERTEX
8
0
10
14.868271875000001
20
9.916440625
30
0
0
VERTEX
8
0
10
14.8618
20
9.8672875
30
0
0
VERTEX
8
0
10
14.8618
20
9.8177125
30
0
0
VERTEX
8
0
10
14.868271875000001
20
9.768559375
30
0
0
VERTEX
8
0
10
14.881103125000001
20
9.720671875
30
0
0
VERTEX
8
0
10
14.900075000000001
20
9.67486875
30
0
0
VERTEX
8
0
10
14.924862500000001
20
9.631931250000001
30
0
0
VERTEX
8
0
10
14.955043750000002
20
9.592600000000001
30
0
0
VERTEX
8
0
10
14.9901
20
9.55754375
30
0
0
VERTEX
8
0
10
15.02943125
20
9.5273625
30
0
0
VERTEX
8
0
10
15.07236875
20
9.502575
30
0
0
VERTEX
8
0
10
15.118171875000002
20
9.483603125
30
0
0
VERTEX
8
0
10
15.166059375000001
20
9.470771875
30
0
0
VERTEX
8
0
10
15.215212500000002
20
9.4643
30
0
0
VERTEX
8
0
10
15.2647875
20
9.4643
30
0
0
SEQEND
0
POLYLINE
66
1
8
1_copper
10
0.0
20
0.0
30
0.0
70
1
0
VERTEX
8
0
10
19.123940625
20
13.217271875
30
0
42
0.818105841543916
0
VERTEX
8
0
10
19.1262
20
13.960121875
30
0
0
VERTEX
8
0
10
19.1262
20
16.8275
30
0
42
0.4142135623730951
0
VERTEX
8
0
10
19.05
20
16.9037
30
0
0
VERTEX
8
0
10
15.5890625
20
16.9037
30
0
0
VERTEX
8
0
10
14.6812
20
17.8115625
30
0
0
VERTEX
8
0
10
14.6812
20
21.2725
30
0
42
0.4142135623730951
0
VERTEX
8
0
10
14.605
20
21.3487
30
0
0
VERTEX
8
0
10
13.600000000000001
20
21.3487
30
0
0
VERTEX
8
0
10
13.600000000000001
20
22.266000000000002
30
0
0
VERTEX
8
0
10
11.8
20
22.266000000000002
30
0
0
VERTEX
8
0
10
11.8
20
20.666
30
0
0
VERTEX
8
0
10
13.600000000000001
20
20.666
30
0
0
VERTEX
8
0
10
13.600000000000001
20
21.1963
30
0
0
VERTEX
8
0
10
14.5288
20
21.1963
30
0
0
VERTEX
8
0
10
14.5288
20
17.78
30
0
42
0.19891236737965798
0
VERTEX
8
0
10
14.55111875
20
17.72611875
30
0
0
VERTEX
8
0
10
15.503618750000001
20
16.77361875
30
0
42
0.19891236737965798
0
VERTEX
8
0
10
15.557500000000001
20
16.7513
30
0
0
VERTEX
8
0
10
18.9738
20
16.7513
30
0
0
VERTEX
8
0
10
18.9738
20
13.960121875
30
0
0
VERTEX
8
0
10
18.928171875
20
13.947896875000001
30
0
0
VERTEX
8
0
10
18.88236875
20
13.928925000000001
30
0
0
VERTEX
8
0
10
18.83943125
20
13.904137500000001
30
0
0
VERTEX
8
0
10
18.8001
20
13.87395625
30
0
0
VERTEX
8
0
10
18.76504375
20
13.8389
30
0
0
VERTEX
8
0
10
18.734862500000002
20
13.79956875
30
0
0
VERTEX
8
0
10
18.710075
20
13.75663125
30
0
0
VERTEX
8
0
10
18.691103125
20
13.710828125
30
0
0
VERTEX
8
0
10
18.678271875
20
13.662940625000001
30
0
0
VERTEX
8
0
10
18.6718
20
13.6137875
30
0
0
VERTEX
8
0
10
18.6718
20
13.5642125
30
0
0
VERTEX
8
0
10
18.678271875
20
13.515059375
30
0
0
VERTEX
8
0
10
18.691103125
20
13.467171875
30
0
0
VERTEX
8
0
10
18.710075
20
13.421368750000001
30
0
0
VERTEX
8
0
10
18.734862500000002
20
13.37843125
30
0
0
VERTEX
8
0
10
18.76504375
20
13.3391
30
0
0
VERTEX
8
0
10
18.8001
20
13.30404375
30
0
0
VERTEX
8
0
10
18.83943125
20
13.2738625
30
0
0
VERTEX
8
0
10
18.88236875
20
13.249075000000001
30
0
0
VERTEX
8
0
10
18.928171875
20
13.230103125000001
30
0
0
VERTEX
8
0
10
18.976059375000002
20
13.217271875
30
0
0
VERTEX
8
0
10
19.025212500000002
20
13.2108
30
0
0
VERTEX
8
0
10
19.0747875
20
13.2108
30
0
0
SEQEND
0
POLYLINE
66
1
8
16_copper
10
0.0
20
0.0
30
0.0
70
1
0
VERTEX
8
0
10
19.900000000000002
20
13.020000000000001
30
0
0
VERTEX
8
0
10
19.1262
20
13.020000000000001
30
0
0
VERTEX
8
0
10
19.1262
20
13.217878125
30
0
42
0.9969241442347151
0
VERTEX
8
0
10
18.976059375000002
20
13.960728125000001
30
0
0
VERTEX
8
0
10
18.928171875
20
13.947896875000001
30
0
42
0.7648843201253167
0
VERTEX
8
0
10
18.9738
20
13.217878125
30
0
0
VERTEX
8
0
10
18.9738
20
13.020000000000001
30
0
0
VERTEX
8
0
10
18.2
20
13.020000000000001
30
0
0
VERTEX
8
0
10
18.2
20
10.82
30
0
0
VERTEX
8
0
10
19.900000000000002
20
10.82
30
0
0
SEQEND
0
POLYLINE
66
1
8
1_copper
10
0.0
20
0.0
30
0.0
70
1
0
VERTEX
8
0
10
16.902
20
18.338800000000003
30
0
0
VERTEX
8
0
10
17.726378125
20
18.338800000000003
30
0
42
0.9969241442347151
0
VERTEX
8
0
10
18.469228125
20
18.488940625
30
0
0
VERTEX
8
0
10
18.456396875
20
18.536828125
30
0
42
0.7648843201253167
0
VERTEX
8
0
10
17.726378125
20
18.4912
30
0
0
VERTEX
8
0
10
16.902
20
18.4912
30
0
0
VERTEX
8
0
10
16.902
20
19.466
30
0
0
VERTEX
8
0
10
15.102
20
19.466
30
0
0
VERTEX
8
0
10
15.102
20
17.866
30
0
0
VERTEX
8
0
10
16.902
20
17.866
30
0
0
SEQEND
0
POLYLINE
66
1
8
16_copper
10
0.0
20
0.0
30
0.0
70
1
0
VERTEX
8
0
10
17.36
20
4.42
30
0
0
VERTEX
8
0
10
15.66
20
4.42
30
0
0
VERTEX
8
0
10
15.66
20
3.8152625000000002
30
0
0
VERTEX
8
0
10
14.65888125
20
4.81638125
30
0
42
0.19891236737965798
0
VERTEX
8
0
10
14.605
20
4.8387
30
0
0
VERTEX
8
0
10
12.7315625
20
4.8387
30
0
0
VERTEX
8
0
10
11.8237
20
5.7465625000000005
30
0
0
VERTEX
8
0
10
11.8237
20
18.338800000000003
30
0
0
VERTEX
8
0
10
17.726378125
20
18.338800000000003
30
0
42
0.5305589329458261
0
VERTEX
8
0
10
18.30604375
20
18.098693750000002
30
0
0
VERTEX
8
0
10
19.94861875
20
16.45611875
30
0
42
0.19891236737965798
0
VERTEX
8
0
10
20.0025
20
16.4338
30
0
0
VERTEX
8
0
10
22.5109375
20
16.4338
30
0
0
VERTEX
8
0
10
23.9522
20
14.992537500000001
30
0
0
VERTEX
8
0
10
23.9522
20
13.0683
30
0
0
VERTEX
8
0
10
24.5618
20
13.0683
30
0
0
VERTEX
8
0
10
24.5618
20
15.2781
30
0
0
VERTEX
8
0
10
23.9522
20
15.2781
30
0
0
VERTEX
8
0
10
23.9522
20
15.2080625
30
0
0
VERTEX
8
0
10
22.59638125
20
16.56388125
30
0
42
0.19891236737965798
0
VERTEX
8
0
10
22.5425
20
16.5862
30
0
0
VERTEX
8
0
10
20.0340625
20
16.5862
30
0
0
VERTEX
8
0
10
18.41380625
20
18.206456250000002
30
0
42
0.9969257294187597
0
VERTEX
8
0
10
17.7823625
20
18.62556875
30
0
0
VERTEX
8
0
10
17.757575
20
18.582631250000002
30
0
42
0.06399643941626622
0
VERTEX
8
0
10
17.726378125
20
18.4912
30
0
0
VERTEX
8
0
10
11.7475
20
18.4912
30
0
42
0.4142135623730951
0
VERTEX
8
0
10
11.6713
20
18.415
30
0
0
VERTEX
8
0
10
11.6713
20
5.715
30
0
42
0.19891236737965798
0
VERTEX
8
0
10
11.69361875
20
5.66111875
30
0
0
VERTEX
8
0
10
12.646118750000001
20
4.70861875
30
0
42
0.19891236737965798
0
VERTEX
8
0
10
12.700000000000001
20
4.6863
30
0
0
VERTEX
8
0
10
14.5734375
20
4.6863
30
0
0
VERTEX
8
0
10
15.66
20
3.5997375000000003
30
0
0
VERTEX
8
0
10
15.66
20
2.22
30
0
0
VERTEX
8
0
10
17.36
20
2.22
30
0
0
SEQEND
0
POLYLINE
66
1
8
1_copper
10
0.0
20
0.0
30
0.0
70
1
0
VERTEX
8
0
10
14.043940625000001
20
9.788271875000001
30
0
42
0.818105841543916
0
VERTEX
8
0
10
14.0462
20
10.531121875
30
0
0
VERTEX
8
0
10
14.0462
20
11.43
30
0
42
0.19891236737965798
0
VERTEX
8
0
10
14.02388125
20
11.483881250000001
30
0
0
VERTEX
8
0
10
13.483762500000001
20
12.024000000000001
30
0
0
VERTEX
8
0
10
13.600000000000001
20
12.024000000000001
30
0
0
VERTEX
8
0
10
13.600000000000001
20
13.624
30
0
0
VERTEX
8
0
10
11.8
20
13.624
30
0
0
VERTEX
8
0
10
11.8
20
12.024000000000001
30
0
0
VERTEX
8
0
10
13.268237500000001
20
12.024000000000001
30
0
0
VERTEX
8
0
10
13.8938
20
11.3984375
30
0
0
VERTEX
8
0
10
13.8938
20
10.531121875
30
0
0
VERTEX
8
0
10
13.848171875
20
10.518896875000001
30
0
0
VERTEX
8
0
10
13.802368750000001
20
10.499925000000001
30
0
0
VERTEX
8
0
10
13.75943125
20
10.4751375
30
0
0
VERTEX
8
0
10
13.7201
20
10.44495625
30
0
0
VERTEX
8
0
10
13.68504375
20
10.4099
30
0
0
VERTEX
8
0
10
13.6548625
20
10.37056875
30
0
0
VERTEX
8
0
10
13.630075000000001
20
10.327631250000001
30
0
0
VERTEX
8
0
10
13.611103125000001
20
10.281828125
30
0
0
VERTEX
8
0
10
13.598271875
20
10.233940625
30
0
0
VERTEX
8
0
10
13.591800000000001
20
10.1847875
30
0
0
VERTEX
8
0
10
13.591800000000001
20
10.1352125
30
0
0
VERTEX
8
0
10
13.598271875
20
10.086059375
30
0
0
VERTEX
8
0
10
13.611103125000001
20
10.038171875
30
0
0
VERTEX
8
0
10
13.630075000000001
20
9.99236875
30
0
0
VERTEX
8
0
10
13.6548625
20
9.94943125
30
0
0
VERTEX
8
0
10
13.68504375
20
9.9101
30
0
0
VERTEX
8
0
10
13.7201
20
9.87504375
30
0
0
VERTEX
8
0
10
13.75943125
20
9.8448625
30
0
0
VERTEX
8
0
10
13.802368750000001
20
9.820075000000001
30
0
0
VERTEX
8
0
10
13.848171875
20
9.801103125000001
30
0
0
VERTEX
8
0
10
13.896059375
20
9.788271875000001
30
0
0
VERTEX
8
0
10
13.9452125
20
9.7818
30
0
0
VERTEX
8
0
10
13.994787500000001
20
9.7818
30
0
0
SEQEND
0
POLYLINE
66
1
8
16_copper
10
0.0
20
0.0
30
0.0
70
1
0
VERTEX
8
0
10
19.121928125
20
9.132515625
30
0
42
0.16997656369761124
0
VERTEX
8
0
10
19.167381250000002
20
9.15361875
30
0
0
VERTEX
8
0
10
22.6375625
20
12.623800000000001
30
0
0
VERTEX
8
0
10
26.035
20
12.623800000000001
30
0
42
0.19891236737965798
0
VERTEX
8
0
10
26.08888125
20
12.646118750000001
30
0
0
VERTEX
8
0
10
26.5110625
20
13.0683
30
0
0
VERTEX
8
0
10
27.1018
20
13.0683
30
0
0
VERTEX
8
0
10
27.1018
20
15.2781
30
0
0
VERTEX
8
0
10
26.4922
20
15.2781
30
0
0
VERTEX
8
0
10
26.4922
20
13.264962500000001
30
0
0
VERTEX
8
0
10
26.0034375
20
12.776200000000001
30
0
0
VERTEX
8
0
10
22.606
20
12.776200000000001
30
0
42
0.19891236737965798
0
VERTEX
8
0
10
22.55211875
20
12.753881250000001
30
0
0
VERTEX
8
0
10
19.081937500000002
20
9.2837
30
0
0
VERTEX
8
0
10
14.954062500000001
20
9.2837
30
0
0
VERTEX
8
0
10
14.28630625
20
9.95145625
30
0
42
0.9969257294187597
0
VERTEX
8
0
10
13.6548625
20
10.37056875
30
0
0
VERTEX
8
0
10
13.630075000000001
20
10.327631250000001
30
0
42
0.76488331982605
0
VERTEX
8
0
10
14.178543750000001
20
9.84369375
30
0
0
VERTEX
8
0
10
14.868618750000001
20
9.15361875
30
0
42
0.19891236737965798
0
VERTEX
8
0
10
14.922500000000001
20
9.131300000000001
30
0
0
VERTEX
8
0
10
19.113500000000002
20
9.131300000000001
30
0
0
SEQEND
0
POLYLINE
66
1
8
1_copper
10
0.0
20
0.0
30
0.0
70
1
0
VERTEX
8
0
10
19.314440625
20
6.4227718750000005
30
0
42
0.9881866189337561
0
VERTEX
8
0
10
19.175496875
20
7.16740625
30
0
0
VERTEX
8
0
10
18.4912
20
8.904465625
30
0
0
VERTEX
8
0
10
18.4912
20
13.335
30
0
42
0.19891236737965798
0
VERTEX
8
0
10
18.468881250000003
20
13.38888125
30
0
0
VERTEX
8
0
10
16.902
20
14.9557625
30
0
0
VERTEX
8
0
10
16.902
20
16.424
30
0
0
VERTEX
8
0
10
15.102
20
16.424
30
0
0
VERTEX
8
0
10
15.102
20
15.9512
30
0
0
VERTEX
8
0
10
13.600000000000001
20
15.9512
30
0
0
VERTEX
8
0
10
13.600000000000001
20
16.424
30
0
0
VERTEX
8
0
10
11.8
20
16.424
30
0
0
VERTEX
8
0
10
11.8
20
14.824
30
0
0
VERTEX
8
0
10
13.600000000000001
20
14.824
30
0
0
VERTEX
8
0
10
13.600000000000001
20
15.7988
30
0
0
VERTEX
8
0
10
15.102
20
15.7988
30
0
0
VERTEX
8
0
10
15.102
20
14.824
30
0
0
VERTEX
8
0
10
16.818237500000002
20
14.824
30
0
0
VERTEX
8
0
10
18.338800000000003
20
13.303437500000001
30
0
0
VERTEX
8
0
10
18.338800000000003
20
8.89
30
0
42
0.09409101570837239
0
VERTEX
8
0
10
18.344103125
20
8.862071875
30
0
0
VERTEX
8
0
10
19.033618750000002
20
7.111765625
30
0
0
VERTEX
8
0
10
19.02993125
20
7.109637500000001
30
0
0
VERTEX
8
0
10
18.9906
20
7.079456250000001
30
0
0
VERTEX
8
0
10
18.95554375
20
7.0444
30
0
0
VERTEX
8
0
10
18.925362500000002
20
7.00506875
30
0
0
VERTEX
8
0
10
18.900575
20
6.9621312500000005
30
0
0
VERTEX
8
0
10
18.881603125
20
6.916328125000001
30
0
0
VERTEX
8
0
10
18.868771875
20
6.868440625000001
30
0
0
VERTEX
8
0
10
18.8623
20
6.819287500000001
30
0
0
VERTEX
8
0
10
18.8623
20
6.769712500000001
30
0
0
VERTEX
8
0
10
18.868771875
20
6.720559375000001
30
0
0
VERTEX
8
0
10
18.881603125
20
6.672671875000001
30
0
0
VERTEX
8
0
10
18.900575
20
6.626868750000001
30
0
0
VERTEX
8
0
10
18.925362500000002
20
6.58393125
30
0
0
VERTEX
8
0
10
18.95554375
20
6.5446
30
0
0
VERTEX
8
0
10
18.9906
20
6.509543750000001
30
0
0
VERTEX
8
0
10
19.02993125
20
6.479362500000001
30
0
0
VERTEX
8
0
10
19.07286875
20
6.454575
30
0
0
VERTEX
8
0
10
19.118671875
20
6.435603125
30
0
0
VERTEX
8
0
10
19.166559375000002
20
6.4227718750000005
30
0
0
VERTEX
8
0
10
19.215712500000002
20
6.416300000000001
30
0
0
VERTEX
8
0
10
19.2652875
20
6.416300000000001
30
0
0
SEQEND
0
POLYLINE
66
1
8
16_copper
10
0.0
20
0.0
30
0.0
70
1
0
VERTEX
8
0
10
22.136490625
20
5.97285
30
0
0
VERTEX
8
0
10
22.149150000000002
20
5.985509375
30
0
0
VERTEX
8
0
10
22.156000000000002
20
6.0020500000000006
30
0
0
VERTEX
8
0
10
22.156000000000002
20
6.82995
30
0
0
VERTEX
8
0
10
22.149150000000002
20
6.846490625
30
0
0
VERTEX
8
0
10
22.136490625
20
6.8591500000000005
30
0
0
VERTEX
8
0
10
22.11995
20
6.8660000000000005
30
0
0
VERTEX
8
0
10
20.89205
20
6.8660000000000005
30
0
0
VERTEX
8
0
10
20.875509375
20
6.8591500000000005
30
0
0
VERTEX
8
0
10
20.86285
20
6.846490625
30
0
0
VERTEX
8
0
10
20.856
20
6.82995
30
0
0
VERTEX
8
0
10
20.856
20
6.3627
30
0
0
VERTEX
8
0
10
19.90223125
20
6.3627
30
0
0
VERTEX
8
0
10
19.57776875
20
6.62226875
30
0
42
0.9431906691866483
0
VERTEX
8
0
10
18.925362500000002
20
7.00506875
30
0
0
VERTEX
8
0
10
18.900575
20
6.9621312500000005
30
0
42
0.8096049694268203
0
VERTEX
8
0
10
19.48239375
20
6.5034
30
0
0
VERTEX
8
0
10
19.827896875
20
6.226996875
30
0
42
0.1703052690111419
0
VERTEX
8
0
10
19.875500000000002
20
6.2103
30
0
0
VERTEX
8
0
10
20.856
20
6.2103
30
0
0
VERTEX
8
0
10
20.856
20
6.0020500000000006
30
0
0
VERTEX
8
0
10
20.86285
20
5.985509375
30
0
0
VERTEX
8
0
10
20.875509375
20
5.97285
30
0
0
VERTEX
8
0
10
20.89205
20
5.966
30
0
0
VERTEX
8
0
10
22.11995
20
5.966
30
0
0
SEQEND
0
CIRCLE
8
drills_PTH
10
25.146
20
4.8660000000000005
30
0
40
0.5969
0
CIRCLE
8
drills_PTH
10
25.146
20
9.866
30
0
40
0.5969
0
CIRCLE
8
drills_PTH
10
13.26
20
7.042000000000001
30
0
40
0.5
0
CIRCLE
8
drills_PTH
10
7.16
20
7.042000000000001
30
0
40
0.5
0
CIRCLE
8
drills_PTH
10
10.16
20
2.242
30
0
40
0.5
0
CIRCLE
8
drills_NPTH
10
6.45
20
14.936
30
0
40
0.45
0
CIRCLE
8
drills_NPTH
10
6.45
20
18.436
30
0
40
0.45
0
CIRCLE
8
drills_via_1_16
10
21.2725
20
15.875
30
0
40
0.17500000000000002
0
CIRCLE
8
drills_via_1_16
10
20.6375
20
20.0025
30
0
40
0.17500000000000002
0
CIRCLE
8
drills_via_1_16
10
15.24
20
9.842500000000001
30
0
40
0.17500000000000002
0
CIRCLE
8
drills_via_1_16
10
19.05
20
13.589
30
0
40
0.17500000000000002
0
CIRCLE
8
drills_via_1_16
10
18.0975
20
18.415
30
0
40
0.17500000000000002
0
CIRCLE
8
drills_via_1_16
10
13.97
20
10.16
30
0
40
0.17500000000000002
0
CIRCLE
8
drills_via_1_16
10
19.2405
20
6.7945
30
0
40
0.17500000000000002
0
ENDSEC
0
EOF